<?xml version="1.0" encoding="UTF-8"?>
<svg version="1.1" xmlns="http://www.w3.org/2000/svg" width="552" height="161">
<path d="M0 0 C182.16 0 364.32 0 552 0 C552 53.13 552 106.26 552 161 C369.84 161 187.68 161 0 161 C0 107.87 0 54.74 0 0 Z " fill="#FDFDFE" transform="translate(0,0)"/>
<path d="M0 0 C64.48523295 0 64.48523295 0 79.8203125 14.72265625 C90.79835005 26.19254136 96.4252818 39.607769 96.3125 55.4375 C96.30686035 56.27224854 96.3012207 57.10699707 96.29541016 57.96704102 C96.17454417 64.09829723 95.5047546 69.34996195 93 75 C92.43152344 76.40572266 92.43152344 76.40572266 91.8515625 77.83984375 C85.20951892 92.75564681 74.10828589 102.13018324 59.14453125 108.1484375 C41.57612669 112.9060924 12.70243088 110 0 110 C0 73.7 0 37.4 0 0 Z " fill="#171717" transform="translate(314,21)"/>
<path d="M0 0 C0.66 0 1.32 0 2 0 C4.17621568 3.58036115 6.32975583 7.1731263 8.46362305 10.77880859 C9.19196367 12.00247262 9.92628631 13.22259724 10.66674805 14.43896484 C11.73273471 16.19243046 12.77625747 17.95767829 13.81640625 19.7265625 C14.45006104 20.78439941 15.08371582 21.84223633 15.73657227 22.93212891 C17.24479216 26.5944074 17.12184821 28.23636005 16 32 C14.74755859 34.65527344 14.74755859 34.65527344 13.1484375 37.359375 C12.55111816 38.38095703 11.95379883 39.40253906 11.33837891 40.45507812 C10.69046387 41.54240234 10.04254883 42.62972656 9.375 43.75 C8.36329016 45.47451101 7.35159547 47.19903113 6.34078979 48.92407227 C5.28397895 50.7251026 4.22326165 52.52379043 3.16210938 54.32226562 C-0.05505704 59.78366213 -3.21580039 65.27763623 -6.37860107 70.77062988 C-7.36372056 72.48042317 -8.35103729 74.18894988 -9.33837891 75.89746094 C-9.93569824 76.93161133 -10.53301758 77.96576172 -11.1484375 79.03125 C-11.67614746 79.94455078 -12.20385742 80.85785156 -12.74755859 81.79882812 C-13.53336511 83.17988691 -14.28939248 84.57878495 -15 86 C-13.35 86 -11.7 86 -10 86 C-9.44054687 84.9790625 -8.88109375 83.958125 -8.3046875 82.90625 C-2.65880651 72.65158444 3.15959283 62.50783302 9.08837891 52.4140625 C12.470549 46.65077523 15.78822255 40.86010119 19 35 C20.32 35.66 21.64 36.32 23 37 C19.03682748 45.17031598 14.75277357 53.06396021 10.125 60.875 C8.8953634 62.96586953 7.66619478 65.05701437 6.4375 67.1484375 C5.8496875 68.14713867 5.261875 69.14583984 4.65625 70.17480469 C1.38572321 75.75359832 -1.81083427 81.37439089 -5 87 C-3.02 87 -1.04 87 1 87 C1.2686084 86.2884375 1.5372168 85.576875 1.81396484 84.84375 C3.02894575 81.93059694 4.43553438 79.25389621 5.9765625 76.5 C6.56163574 75.45320068 7.14670898 74.40640137 7.74951172 73.32788086 C8.36842285 72.22968018 8.98733398 71.13147949 9.625 70 C10.25293457 68.88181885 10.88086914 67.7636377 11.52783203 66.61157227 C15.84407902 58.95994236 20.26325868 51.39931952 25 44 C25.99 44.33 26.98 44.66 28 45 C27.40633106 49.19887599 25.96667114 52.17730954 23.83203125 55.82421875 C23.18556641 56.93603516 22.53910156 58.04785156 21.87304688 59.19335938 C21.18631593 60.3581425 20.49946639 61.52285572 19.8125 62.6875 C19.15185547 63.82123047 18.49121094 64.95496094 17.81054688 66.12304688 C13.9243239 72.77911485 9.98281559 79.40132435 6 86 C7.65 86 9.3 86 11 86 C13.0631792 82.42548451 15.12615964 78.85085438 17.18896484 75.27612305 C17.88910701 74.06287623 18.58930122 72.84965944 19.28955078 71.63647461 C22.87133465 65.43094464 26.4530136 59.22550964 30 53 C31.32 53.33 32.64 53.66 34 54 C32.70360008 58.2851348 31.05768261 61.91765395 28.77734375 65.765625 C28.15666016 66.82007812 27.53597656 67.87453125 26.89648438 68.9609375 C26.25001953 70.04632813 25.60355469 71.13171875 24.9375 72.25 C23.65459074 74.42166404 22.37202099 76.59352869 21.08984375 78.765625 C20.52128662 79.72243164 19.95272949 80.67923828 19.36694336 81.66503906 C18.53517794 83.08582929 17.7362715 84.52745701 17 86 C18.65 86 20.3 86 22 86 C22.37286133 85.30849854 22.74572266 84.61699707 23.12988281 83.90454102 C24.82298297 80.78292045 26.53614135 77.6727681 28.25 74.5625 C29.12978516 72.92958008 29.12978516 72.92958008 30.02734375 71.26367188 C30.60097656 70.22919922 31.17460937 69.19472656 31.765625 68.12890625 C32.28930664 67.17056885 32.81298828 66.21223145 33.35253906 65.22485352 C35 63 35 63 37.20214844 62.17944336 C37.79543945 62.12022705 38.38873047 62.06101074 39 62 C39.33 62.66 39.66 63.32 40 64 C38.75244141 66.59790039 38.75244141 66.59790039 36.8515625 69.84765625 C36.35358658 70.70549965 36.35358658 70.70549965 35.84555054 71.58067322 C34.77949774 73.41242305 33.70222759 75.23730427 32.625 77.0625 C31.90554797 78.29711721 31.18678888 79.53213851 30.46875 80.76757812 C25.19728007 89.80271993 25.19728007 89.80271993 24 91 C21.88318683 91.0942174 19.76319242 91.11742761 17.64428711 91.11352539 C16.98089828 91.11367142 16.31750946 91.11381744 15.63401794 91.1139679 C13.43176044 91.11326881 11.22958655 91.10547665 9.02734375 91.09765625 C7.50419664 91.09579206 5.98104893 91.09436816 4.457901 91.09336853 C0.44162349 91.08954346 -3.57461808 91.07971328 -7.59088135 91.06866455 C-11.68623366 91.05845019 -15.78159176 91.05387086 -19.87695312 91.04882812 C-27.91798528 91.038091 -35.95898817 91.02101472 -44 91 C-43.34 92.32 -42.68 93.64 -42 95 C-11.805 95.495 -11.805 95.495 19 96 C19 97.65 19 99.3 19 101 C0.19 101 -18.62 101 -38 101 C-37.34 102.32 -36.68 103.64 -36 105 C-11.25 105.495 -11.25 105.495 14 106 C14 107.32 14 108.64 14 110 C-1.51 110 -17.02 110 -33 110 C-32.34 111.32 -31.68 112.64 -31 114 C-11.2 114.495 -11.2 114.495 9 115 C9 116.32 9 117.64 9 119 C-3.21 119 -15.42 119 -28 119 C-27.34 120.65 -26.68 122.3 -26 124 C-15.77 124 -5.54 124 5 124 C5 125.32 5 126.64 5 128 C0.44746089 128.32359485 -4.09830403 128.55809751 -8.65966797 128.71411133 C-10.20675204 128.77915148 -11.75304678 128.86763807 -13.29736328 128.98071289 C-18.45491425 129.34863373 -22.98297076 129.37261761 -28 128 C-31.41296434 124.7262013 -33.24849488 121.16110049 -35.14825439 116.85787964 C-36.5380143 113.82645029 -38.2705699 111.00208107 -39.96484375 108.1328125 C-41.29099205 105.79793802 -42.61518337 103.46203769 -43.9375 101.125 C-49.02193049 92.16270982 -54.17011454 83.25500151 -59.59375 74.4921875 C-61 72 -61 72 -61 70 C-61.66 70 -62.32 70 -63 70 C-63.94336482 73.05895607 -64.17681156 74.56300806 -62.95874023 77.57348633 C-62.41419189 78.48380615 -61.86964355 79.39412598 -61.30859375 80.33203125 C-60.69951172 81.36706787 -60.09042969 82.40210449 -59.46289062 83.46850586 C-58.46032227 85.12378296 -58.46032227 85.12378296 -57.4375 86.8125 C-56.75691741 87.96205804 -56.07789923 89.1125436 -55.40039062 90.26391602 C-53.28372328 93.85273529 -51.14309385 97.42691945 -49 101 C-46.9553016 104.41407493 -44.91544688 107.83089313 -42.88696289 111.25463867 C-41.64506188 113.34943276 -40.39318259 115.43834852 -39.13061523 117.52075195 C-38.29252319 118.93167114 -38.29252319 118.93167114 -37.4375 120.37109375 C-36.94121094 121.19536865 -36.44492188 122.01964355 -35.93359375 122.86889648 C-35 125 -35 125 -36 128 C-37.79248047 127.83789062 -37.79248047 127.83789062 -40 127 C-41.67236328 124.67773437 -41.67236328 124.67773437 -43.3203125 121.59375 C-43.93358398 120.46453125 -44.54685547 119.3353125 -45.17871094 118.171875 C-45.49674683 117.57181641 -45.81478271 116.97175781 -46.14245605 116.35351562 C-47.45727064 113.87318954 -48.80073456 111.40882487 -50.1427002 108.94311523 C-50.813094 107.71038479 -51.4819594 106.47682194 -52.14929199 105.24243164 C-54.92643869 100.10769476 -57.79465329 95.03394435 -60.75 90 C-61.33998779 88.9800293 -61.33998779 88.9800293 -61.94189453 87.93945312 C-63.69739735 84.95750313 -65.36089518 82.27163453 -68 80 C-69.00664695 83.16853941 -69.159502 84.61654417 -67.86352539 87.73217773 C-67.28078857 88.70614502 -66.69805176 89.6801123 -66.09765625 90.68359375 C-65.45771729 91.77019287 -64.81777832 92.85679199 -64.15844727 93.97631836 C-63.45990786 95.13011198 -62.76125689 96.28383807 -62.0625 97.4375 C-61.3655669 98.61310254 -60.67017387 99.78961943 -59.97631836 100.96704102 C-57.99740331 104.31928384 -55.99850703 107.65939933 -54 111 C-52.34048419 113.80475459 -50.69607205 116.61758293 -49.0625 119.4375 C-48.45535156 120.46746094 -47.84820312 121.49742187 -47.22265625 122.55859375 C-46 125 -46 125 -46 128 C-46.99 128.33 -47.98 128.66 -49 129 C-65.25714425 100.84846857 -65.25714425 100.84846857 -72 89 C-72.66 89.66 -73.32 90.32 -74 91 C-73.79210646 96.05559284 -70.82602316 100.28474976 -68.375 104.5625 C-67.92858154 105.35664307 -67.48216309 106.15078613 -67.0222168 106.96899414 C-64.97880008 110.59029923 -62.9033001 114.18742309 -60.74609375 117.7421875 C-60.10800781 118.79664063 -59.46992187 119.85109375 -58.8125 120.9375 C-57.95591797 122.31228516 -57.95591797 122.31228516 -57.08203125 123.71484375 C-56 126 -56 126 -57 129 C-57.99 129 -58.98 129 -60 129 C-60.40839111 128.26885986 -60.81678223 127.53771973 -61.23754883 126.78442383 C-62.76329278 124.05376892 -64.28973854 121.32350786 -65.81665039 118.59350586 C-66.79822596 116.83802811 -67.77900173 115.08210323 -68.75976562 113.32617188 C-69.38173828 112.21435547 -70.00371094 111.10253906 -70.64453125 109.95703125 C-71.21534424 108.93585205 -71.78615723 107.91467285 -72.37426758 106.86254883 C-72.91075928 105.91790771 -73.44725098 104.9732666 -74 104 C-74.78443481 102.57820435 -74.78443481 102.57820435 -75.5847168 101.12768555 C-76.05176025 100.42554932 -76.51880371 99.72341309 -77 99 C-77.66 99 -78.32 99 -79 99 C-79.79780478 100.7179438 -79.79780478 100.7179438 -80 103 C-78.84365951 105.77321695 -78.84365951 105.77321695 -77.03515625 108.640625 C-76.40029297 109.71054688 -75.76542969 110.78046875 -75.11132812 111.8828125 C-74.43521484 112.99398437 -73.75910156 114.10515625 -73.0625 115.25 C-72.39025391 116.37664062 -71.71800781 117.50328125 -71.02539062 118.6640625 C-69.36119565 121.44952359 -67.68578972 124.22757345 -66 127 C-66.99 128.485 -66.99 128.485 -68 130 C-68.66 130 -69.32 130 -70 130 C-72.17621568 126.41963885 -74.32975583 122.8268737 -76.46362305 119.22119141 C-77.19196367 117.99752738 -77.92628631 116.77740276 -78.66674805 115.56103516 C-79.73273471 113.80756954 -80.77625747 112.04232171 -81.81640625 110.2734375 C-82.45006104 109.21560059 -83.08371582 108.15776367 -83.73657227 107.06787109 C-85.24018737 103.416774 -85.11133883 101.75222174 -84 98 C-82.83935547 95.52832031 -82.83935547 95.52832031 -81.3671875 93.078125 C-80.81522705 92.14718018 -80.2632666 91.21623535 -79.69458008 90.25708008 C-79.09411865 89.26474365 -78.49365723 88.27240723 -77.875 87.25 C-76.60462417 85.11378328 -75.33512504 82.97704501 -74.06640625 80.83984375 C-73.4027002 79.72722168 -72.73899414 78.61459961 -72.05517578 77.46826172 C-68.57815798 71.61957885 -65.20213187 65.71207554 -61.8125 59.8125 C-60.56952894 57.65204535 -59.32607367 55.49186916 -58.08203125 53.33203125 C-57.55843018 52.42171143 -57.0348291 51.5113916 -56.49536133 50.57348633 C-55.02008397 48.0345641 -53.51700274 45.51417354 -52 43 C-53.98 43 -55.96 43 -58 43 C-58.26176025 43.70237793 -58.52352051 44.40475586 -58.79321289 45.12841797 C-60.09371499 48.22299731 -61.63553421 51.03522643 -63.30859375 53.9453125 C-63.63154922 54.50904572 -63.9545047 55.07277893 -64.2872467 55.65359497 C-65.3341975 57.47921688 -66.3857593 59.3021341 -67.4375 61.125 C-68.15910816 62.38103901 -68.88046081 63.63722484 -69.6015625 64.89355469 C-71.72962142 68.59845101 -73.86392951 72.29971837 -76 76 C-76.60344238 77.04575195 -77.20688477 78.09150391 -77.82861328 79.16894531 C-80.87818559 84.45036726 -83.93515475 89.72742725 -87 95 C-88.32 94.67 -89.64 94.34 -91 94 C-89.64237465 90.41296852 -88.04493713 87.12206182 -86.1640625 83.78125 C-85.59961426 82.77570068 -85.03516602 81.77015137 -84.45361328 80.73413086 C-83.8501709 79.66686768 -83.24672852 78.59960449 -82.625 77.5 C-82.00737793 76.40244385 -81.38975586 75.3048877 -80.75341797 74.17407227 C-74.88273028 63.75589075 -68.95615204 53.36952511 -63 43 C-64.98 43 -66.96 43 -69 43 C-69.23976562 43.83273438 -69.47953125 44.66546875 -69.7265625 45.5234375 C-71.20166393 49.55055491 -73.16027772 52.96850475 -75.375 56.625 C-75.80474121 57.34486084 -76.23448242 58.06472168 -76.67724609 58.80639648 C-78.11261572 61.20763427 -79.55637719 63.6037162 -81 66 C-82.10988561 67.85255877 -83.21924722 69.70543155 -84.328125 71.55859375 C-87.21255014 76.37613435 -90.10392456 81.18945522 -93 86 C-93.99 85.67 -94.98 85.34 -96 85 C-95.41205623 80.99051247 -94.15063548 78.15688559 -92.0859375 74.68359375 C-91.48910156 73.67103516 -90.89226562 72.65847656 -90.27734375 71.61523438 C-89.64957031 70.56658203 -89.02179688 69.51792969 -88.375 68.4375 C-87.77042969 67.41591797 -87.16585937 66.39433594 -86.54296875 65.34179688 C-85.32254688 63.27957015 -84.09956713 61.21885501 -82.87402344 59.15966797 C-79.88696052 54.12337716 -76.94313288 49.06207557 -74 44 C-75.65 44 -77.3 44 -79 44 C-81.0631792 47.57451549 -83.12615964 51.14914562 -85.18896484 54.72387695 C-85.88910701 55.93712377 -86.58930122 57.15034056 -87.28955078 58.36352539 C-90.87133465 64.56905536 -94.4530136 70.77449036 -98 77 C-99.32 76.67 -100.64 76.34 -102 76 C-100.75427279 71.92168649 -99.2586903 68.4311505 -97.06640625 64.77734375 C-96.49986328 63.82666016 -95.93332031 62.87597656 -95.34960938 61.89648438 C-94.75986328 60.92001953 -94.17011719 59.94355469 -93.5625 58.9375 C-92.97662109 57.95716797 -92.39074219 56.97683594 -91.78710938 55.96679688 C-90.19682101 53.30789249 -88.5995061 50.65336563 -87 48 C-85.99966033 46.33353718 -84.99956109 44.66692993 -84 43 C-85.98 43 -87.96 43 -90 43 C-90.27924316 43.72993164 -90.55848633 44.45986328 -90.84619141 45.21191406 C-92.66030206 49.59556696 -95.02938367 53.63282608 -97.375 57.75 C-98.09816406 59.06291016 -98.09816406 59.06291016 -98.8359375 60.40234375 C-99.3103125 61.23378906 -99.7846875 62.06523438 -100.2734375 62.921875 C-100.70060059 63.68081055 -101.12776367 64.43974609 -101.56787109 65.22167969 C-103.27242498 67.33827883 -104.35239483 67.64529015 -107 68 C-107.33 67.34 -107.66 66.68 -108 66 C-106.75244141 63.40209961 -106.75244141 63.40209961 -104.8515625 60.15234375 C-104.51957855 59.58044815 -104.1875946 59.00855255 -103.84555054 58.41932678 C-102.77949774 56.58757695 -101.70222759 54.76269573 -100.625 52.9375 C-99.90554797 51.70288279 -99.18678888 50.46786149 -98.46875 49.23242188 C-93.19728007 40.19728007 -93.19728007 40.19728007 -92 39 C-89.88318683 38.9057826 -87.76319242 38.88257239 -85.64428711 38.88647461 C-84.98089828 38.88632858 -84.31750946 38.88618256 -83.63401794 38.8860321 C-81.43176044 38.88673119 -79.22958655 38.89452335 -77.02734375 38.90234375 C-75.50419664 38.90420794 -73.98104893 38.90563184 -72.457901 38.90663147 C-68.44162349 38.91045654 -64.42538192 38.92028672 -60.40911865 38.93133545 C-56.31376634 38.94154981 -52.21840824 38.94612914 -48.12304688 38.95117188 C-40.08201472 38.961909 -32.04101183 38.97898528 -24 39 C-24.99 37.02 -24.99 37.02 -26 35 C-56.195 34.505 -56.195 34.505 -87 34 C-87 32.35 -87 30.7 -87 29 C-68.19 29 -49.38 29 -30 29 C-30.99 27.02 -30.99 27.02 -32 25 C-56.75 24.505 -56.75 24.505 -82 24 C-82 22.68 -82 21.36 -82 20 C-66.49 20 -50.98 20 -35 20 C-35.99 18.02 -35.99 18.02 -37 16 C-56.8 15.505 -56.8 15.505 -77 15 C-77 13.68 -77 12.36 -77 11 C-64.79 11 -52.58 11 -40 11 C-40.99 9.02 -40.99 9.02 -42 7 C-52.23 6.67 -62.46 6.34 -73 6 C-73 4.68 -73 3.36 -73 2 C-68.4104797 1.77659599 -63.82415181 1.61382071 -59.23046875 1.50561523 C-57.67033758 1.4604995 -56.11058403 1.39918281 -54.55175781 1.32104492 C-41.72932439 0.69466168 -41.72932439 0.69466168 -37.8371582 3.63256836 C-36.21633135 6.0086594 -35.1232235 8.3534583 -34 11 C-32.95201358 12.86703891 -31.88735919 14.72479318 -30.80859375 16.57421875 C-29.6818228 18.61028156 -28.55824506 20.64811406 -27.4375 22.6875 C-22.10302559 32.32338933 -16.61153131 41.84554862 -10.91186523 51.27026367 C-10.39696533 52.1285376 -9.88206543 52.98681152 -9.3515625 53.87109375 C-8.89604004 54.62318115 -8.44051758 55.37526855 -7.97119141 56.15014648 C-7 58 -7 58 -7 60 C-6.34 60 -5.68 60 -5 60 C-4.17212708 57.14801721 -3.80444155 55.52399423 -4.85766602 52.7019043 C-5.31842529 51.91726807 -5.77918457 51.13263184 -6.25390625 50.32421875 C-7.03157349 48.97529541 -7.03157349 48.97529541 -7.82495117 47.59912109 C-8.68503784 46.15786865 -8.68503784 46.15786865 -9.5625 44.6875 C-10.14298096 43.68799316 -10.72346191 42.68848633 -11.3215332 41.65869141 C-13.20018982 38.43060551 -15.09897438 35.21495577 -17 32 C-18.94505207 28.68644067 -20.88674199 25.37095075 -22.82592773 22.05395508 C-24.04697392 19.96880854 -25.2728882 17.88650347 -26.50415039 15.80737305 C-27.06352295 14.85773682 -27.62289551 13.90810059 -28.19921875 12.9296875 C-28.69252686 12.09679199 -29.18583496 11.26389648 -29.6940918 10.40576172 C-31.00456885 7.9915832 -32.03317906 5.56884239 -33 3 C-31.68 2.67 -30.36 2.34 -29 2 C-28.61368408 2.67240723 -28.22736816 3.34481445 -27.8293457 4.03759766 C-18.98716171 19.41905519 -10.06656044 34.74927144 -1 50 C-0.01 49.01 -0.01 49.01 1 48 C0.66901727 43.85848387 -1.01787221 40.85610909 -3.09765625 37.31640625 C-3.7311499 36.22956543 -4.36464355 35.14272461 -5.01733398 34.02294922 C-5.69894614 32.86940123 -6.38066997 31.71591922 -7.0625 30.5625 C-7.74951151 29.38861181 -8.43578973 28.21429417 -9.12133789 27.03955078 C-10.46632717 24.73605166 -11.81467392 22.43464315 -13.16503906 20.13427734 C-15.45061556 16.23030833 -17.70165207 12.30759682 -19.9375 8.375 C-20.54464844 7.31023438 -21.15179688 6.24546875 -21.77734375 5.1484375 C-22.18082031 4.43945312 -22.58429688 3.73046875 -23 3 C-21.68 2.34 -20.36 1.68 -19 1 C-18.62302979 1.648479 -18.24605957 2.29695801 -17.85766602 2.96508789 C-8.83839664 18.49001736 -8.83839664 18.49001736 0.3125 33.9375 C0.67851318 34.55052979 1.04452637 35.16355957 1.42163086 35.79516602 C3.00175419 38.55335304 3.00175419 38.55335304 5 41 C5.95222238 37.39827591 6.20708027 35.50900996 4.78417969 32.01147461 C3.86233887 30.47245483 3.86233887 30.47245483 2.921875 28.90234375 C2.25542969 27.77119141 1.58898437 26.64003906 0.90234375 25.47460938 C0.18527008 24.29534527 -0.53218124 23.11631072 -1.25 21.9375 C-1.95335533 20.75546779 -2.65519411 19.57253178 -3.35546875 18.38867188 C-6.96927178 12.28745517 -6.96927178 12.28745517 -10.78808594 6.31469727 C-11.3879834 5.16892212 -11.3879834 5.16892212 -12 4 C-11.67 3.01 -11.34 2.02 -11 1 C-10.01 1 -9.02 1 -8 1 C-5.73897707 4.9506161 -3.4786581 8.90163378 -1.21899414 12.85302734 C-0.44998257 14.19753945 0.31922217 15.5419411 1.08862305 16.88623047 C2.19370359 18.81709332 3.29809171 20.74835074 4.40234375 22.6796875 C4.74716293 23.28183075 5.09198212 23.883974 5.44725037 24.50436401 C6.67405636 26.65120217 7.89395014 28.78790029 9 31 C9.66 31 10.32 31 11 31 C11.79780478 29.2820562 11.79780478 29.2820562 12 27 C10.84365951 24.22678305 10.84365951 24.22678305 9.03515625 21.359375 C8.40029297 20.28945313 7.76542969 19.21953125 7.11132812 18.1171875 C6.0971582 16.45042969 6.0971582 16.45042969 5.0625 14.75 C4.39025391 13.62335937 3.71800781 12.49671875 3.02539062 11.3359375 C1.36119565 8.55047641 -0.31421028 5.77242655 -2 3 C-1.34 2.01 -0.68 1.02 0 0 Z " fill="#1F89CA" transform="translate(133,11)"/>
<path d="M0 0 C39.93333333 0 39.93333333 0 51.125 11.109375 C60.62433664 21.23734422 63.72666938 31.84118077 63.37890625 45.6328125 C62.80022825 55.12810949 58.28762445 64.86419161 52 72 C51.34 72 50.68 72 50 72 C50 72.66 50 73.32 50 74 C47.76953125 75.65625 47.76953125 75.65625 44.8125 77.5 C43.84957031 78.1084375 42.88664062 78.716875 41.89453125 79.34375 C27.90563184 87.34819447 21.10638966 83 0 83 C0 55.61 0 28.22 0 0 Z " fill="#FDFDFD" transform="translate(331,34)"/>
<path d="M0 0 C3.63 0 7.26 0 11 0 C18.90288335 18.11077435 26.35267148 36.40518387 33.83007812 54.69433594 C37.13343028 62.77314565 40.4443773 70.84884109 43.75631714 78.9241333 C44.79133069 81.44837133 45.82552634 83.97294325 46.85961914 86.49755859 C47.49622642 88.05046806 48.13286229 89.60336582 48.76953125 91.15625 C49.05322571 91.84937286 49.33692017 92.54249573 49.62921143 93.25662231 C49.89828308 93.91250336 50.16735474 94.5683844 50.44458008 95.24414062 C50.70067047 95.87102783 50.95676086 96.49791504 51.22061157 97.14379883 C51.74999088 98.40457518 52.29963231 99.65699534 52.86703491 100.90112305 C54.39525841 104.26760552 55 106.21669762 55 110 C49.39 110 43.78 110 38 110 C37.28972656 108.14632812 36.57945312 106.29265625 35.84765625 104.3828125 C34.91932362 101.96352141 33.99093533 99.54425168 33.0625 97.125 C32.59392578 95.90167969 32.12535156 94.67835937 31.64257812 93.41796875 C31.19462891 92.25136719 30.74667969 91.08476563 30.28515625 89.8828125 C29.66459351 88.26463623 29.66459351 88.26463623 29.03149414 86.61376953 C28.07263528 84.07222133 28.07263528 84.07222133 27 82 C12.81 82 -1.38 82 -16 82 C-17.258125 85.135 -18.51625 88.27 -19.8125 91.5 C-20.20284424 92.47130859 -20.59318848 93.44261719 -20.99536133 94.44335938 C-23.0635714 99.60574613 -25.06867982 104.78482626 -27 110 C-32.61 110 -38.22 110 -44 110 C-43.2433218 105.45993078 -42.56729792 102.52489545 -40.83984375 98.44140625 C-40.38432129 97.35384033 -39.92879883 96.26627441 -39.45947266 95.14575195 C-38.95722168 93.96327881 -38.4549707 92.78080566 -37.9375 91.5625 C-37.12422006 89.62651895 -36.31341256 87.689513 -35.50262451 85.75248718 C-34.92298929 84.36815922 -34.34260741 82.98414368 -33.76153564 81.60041809 C-30.50737743 73.84643275 -27.32135318 66.06475094 -24.13604736 58.2822876 C-22.44802478 54.15878419 -20.75710593 50.03646882 -19.06640625 45.9140625 C-18.56388336 44.68857193 -18.56388336 44.68857193 -18.0512085 43.43832397 C-14.70301874 35.27390441 -11.35067072 27.11119896 -7.99334717 18.95053101 C-7.37641105 17.4506655 -6.75974922 15.95068714 -6.14337158 14.45059204 C-5.29553145 12.3873324 -4.44673197 10.32447016 -3.59765625 8.26171875 C-3.11820557 7.09600342 -2.63875488 5.93028809 -2.14477539 4.72924805 C-1.47524355 3.13302359 -0.77410663 1.54821327 0 0 Z " fill="#161616" transform="translate(464,21)"/>
<path d="M0 0 C3.63 0 7.26 0 11 0 C15.0344991 8.64535522 18.65905425 17.41868619 22.21487427 26.26766968 C23.87979713 30.40989077 25.5532057 34.5486803 27.2265625 38.6875 C27.55602371 39.502686 27.88548492 40.31787201 28.22492981 41.15776062 C30.79807427 47.51760168 33.41256114 53.85924584 36.0625 60.1875 C36.43769775 61.085896 36.81289551 61.98429199 37.19946289 62.90991211 C39.05696169 67.35683932 40.9170823 71.80265148 42.78173828 76.24658203 C44.41253307 80.13524878 46.03537793 84.02716957 47.65426636 87.92080688 C48.29695591 89.46288602 48.94220549 91.00390092 49.59011841 92.54379272 C50.49633812 94.69839642 51.39363654 96.85651755 52.2890625 99.015625 C52.563517 99.66241714 52.8379715 100.30920929 53.1207428 100.9756012 C54.48115379 104.28280486 55 106.34657208 55 110 C49.39 110 43.78 110 38 110 C37.28972656 108.14632812 36.57945312 106.29265625 35.84765625 104.3828125 C34.91932362 101.96352141 33.99093533 99.54425168 33.0625 97.125 C32.59392578 95.90167969 32.12535156 94.67835937 31.64257812 93.41796875 C31.19462891 92.25136719 30.74667969 91.08476563 30.28515625 89.8828125 C29.66459351 88.26463623 29.66459351 88.26463623 29.03149414 86.61376953 C28.07263528 84.07222133 28.07263528 84.07222133 27 82 C12.81 82 -1.38 82 -16 82 C-17.258125 85.135 -18.51625 88.27 -19.8125 91.5 C-20.20284424 92.47130859 -20.59318848 93.44261719 -20.99536133 94.44335938 C-23.0635714 99.60574613 -25.06867982 104.78482626 -27 110 C-32.61 110 -38.22 110 -44 110 C-42.87617096 103.25702576 -42.87617096 103.25702576 -41.34765625 99.7109375 C-40.99251953 98.87433594 -40.63738281 98.03773437 -40.27148438 97.17578125 C-39.87251953 96.25152344 -39.47355469 95.32726562 -39.0625 94.375 C-38.15574429 92.23774524 -37.25097067 90.099649 -36.34765625 87.9609375 C-36.09521149 87.36440369 -35.84276672 86.76786987 -35.58267212 86.15325928 C-32.04344751 77.76868514 -28.62366068 69.33472923 -25.18634033 60.90802002 C-18.86968873 45.42431032 -12.52744387 29.95273502 -6.06005859 14.53125 C-4.0328145 9.69051606 -2.0171645 4.8449409 0 0 Z " fill="#151515" transform="translate(245,21)"/>
<path d="M0 0 C1.18529297 -0.07089844 2.37058594 -0.14179687 3.59179688 -0.21484375 C12.17804127 -0.39783718 12.17804127 -0.39783718 15.36206055 2.47290039 C16.91801132 4.79119676 18.13760984 7.0951174 19.3125 9.625 C19.95058594 10.63949219 20.58867188 11.65398437 21.24609375 12.69921875 C21.74238281 13.56160156 22.23867187 14.42398438 22.75 15.3125 C23.26433594 16.18261719 23.77867188 17.05273438 24.30859375 17.94921875 C25.62518478 21.45842052 25.39947398 23.02794553 24.3125 26.625 C22.8094537 29.66692249 21.08663595 32.54713684 19.3125 35.4375 C18.8484375 36.21287109 18.384375 36.98824219 17.90625 37.78710938 C14.51291209 43.42458791 14.51291209 43.42458791 13.3125 44.625 C-7.91502041 47.48561637 -7.91502041 47.48561637 -14.63525391 43.45751953 C-17.83181186 40.10438647 -19.2199474 35.93183823 -20.6875 31.625 C-21.50598158 30.28995511 -22.35275579 28.9709367 -23.25 27.6875 C-25.04324559 23.86710723 -24.77664891 22.67984009 -23.6875 18.625 C-22.19488906 15.57805225 -20.46148691 12.70262034 -18.6875 9.8125 C-17.99140625 8.64944336 -17.99140625 8.64944336 -17.28125 7.46289062 C-12.43373449 -0.59046727 -9.43072091 0.25229323 0 0 Z " fill="#FDFEFE" transform="translate(98.6875,53.375)"/>
<path d="M0 0 C3.39460492 1.69730246 3.98590875 5.64818007 5.2578125 9.05078125 C5.56572723 9.86113327 5.87364197 10.67148529 6.19088745 11.50639343 C6.84150774 13.22422306 7.48855429 14.94340978 8.13232422 16.66381836 C9.11838002 19.29483642 10.11885823 21.92003107 11.12109375 24.54492188 C11.75087746 26.21321069 12.37981176 27.88182045 13.0078125 29.55078125 C13.3077713 30.33632889 13.6077301 31.12187653 13.91677856 31.93122864 C14.19061371 32.66846664 14.46444885 33.40570465 14.74658203 34.1652832 C14.98925812 34.81068558 15.2319342 35.45608795 15.48196411 36.12104797 C16 38 16 38 16 42 C5.77 42 -4.46 42 -15 42 C-13.87489747 34.12428229 -13.87489747 34.12428229 -12.70898438 31.10009766 C-12.45201782 30.4231485 -12.19505127 29.74619934 -11.93029785 29.04873657 C-11.65423706 28.34429413 -11.37817627 27.63985168 -11.09375 26.9140625 C-10.80898804 26.17167328 -10.52422607 25.42928406 -10.23083496 24.66439819 C-9.63242956 23.10843346 -9.03052895 21.55380882 -8.42529297 20.00048828 C-7.49570264 17.61396747 -6.57706984 15.22344763 -5.66015625 12.83203125 C-5.07614933 11.31746584 -4.49153568 9.80313421 -3.90625 8.2890625 C-3.63018921 7.57247467 -3.35412842 6.85588684 -3.06970215 6.11758423 C-1.11691472 1.11691472 -1.11691472 1.11691472 0 0 Z " fill="#F8F8F8" transform="translate(250,46)"/>
<path d="M0 0 C2.55693592 1.27846796 2.60447028 2.11599731 3.55078125 4.76171875 C3.83477783 5.54474365 4.11877441 6.32776855 4.41137695 7.13452148 C4.85743286 8.39824585 4.85743286 8.39824585 5.3125 9.6875 C5.62082764 10.542229 5.92915527 11.39695801 6.24682617 12.27758789 C7.17250375 14.84896788 8.08810771 17.42370254 9 20 C9.2578125 20.72767578 9.515625 21.45535156 9.78125 22.20507812 C10.0184375 22.87474609 10.255625 23.54441406 10.5 24.234375 C10.933125 25.45640625 11.36625 26.6784375 11.8125 27.9375 C12.19019531 29.01902344 12.56789063 30.10054687 12.95703125 31.21484375 C13.90759253 33.93943688 13.90759253 33.93943688 15.13671875 36.12890625 C16 38 16 38 16 42 C5.77 42 -4.46 42 -15 42 C-14.25863205 36.81042435 -13.81967443 34.03804427 -11.8125 29.5625 C-9.39633151 24.00181077 -7.23220439 18.38480572 -5.14379883 12.69555664 C-3.55788353 8.4008438 -1.83430842 4.1950308 0 0 Z " fill="#F9F9F9" transform="translate(469,46)"/>
</svg>
